<svg width="40" height="40" viewBox="0 0 40 40" fill="none" xmlns="http://www.w3.org/2000/svg">
<path d="M38.6667 20.0002C38.6667 30.3095 30.3094 38.6668 20 38.6668C9.69072 38.6668 1.33337 30.3095 1.33337 20.0002C1.33337 9.69085 9.69072 1.3335 20 1.3335C30.3094 1.3335 38.6667 9.69085 38.6667 20.0002Z" stroke="#aaa"/>
<path d="M32.0956 11.5132C32.7997 12.2172 32.7997 13.3557 32.0956 14.0611L17.6683 28.4885C16.9642 29.1925 15.8257 29.1925 15.1204 28.4885L7.90475 21.2741C7.2007 20.5701 7.2007 19.4316 7.90475 18.7262C8.60881 18.0222 9.75114 18.0222 10.4552 18.7262L16.3432 24.6602L29.5477 11.5119C30.2518 10.8066 31.3903 10.8079 32.0956 11.5132Z" fill="#aaa"/>
</svg>
